<?xml version="1.0" standalone="no"?><svg xmlns:xlink="http://www.w3.org/1999/xlink" xmlns="http://www.w3.org/2000/svg" viewBox="0 0 1000 590.9109022492187" preserveAspectRatio="xMaxYMax slice"><g transform="scale(0.5692783258662993)"><rect x="0" y="0" width="1756.6153846153845" height="1117.8461538461538" fill="#ffffff"/><rect x="958.1538461538461" y="0" width="79.84615384615384" height="79.84615384615384" fill="#ffffff"/><g transform="translate(958.15,0) scale(1.996) rotate(0)"><path d="M10 5L5 0L0 5L5 10L0 15L5 20L10 15L15 20L20 15L15 10L20 5L15 0L10 5Z" fill="#fffffb"/></g><g transform="translate(998.08,0) scale(1.996) rotate(0)"><path d="M10 5L5 0L0 5L5 10L0 15L5 20L10 15L15 20L20 15L15 10L20 5L15 0L10 5Z" fill="#fffbde"/></g><rect x="1117.8461538461538" y="0" width="79.84615384615384" height="79.84615384615384" fill="#ffffff"/><rect x="1277.5384615384614" y="0" width="79.84615384615384" height="79.84615384615384" fill="#ffffff"/><g transform="translate(1317.46,0) scale(1.996) rotate(0)"><path d="M10 5L5 0L0 5L5 10L0 15L5 20L10 15L15 20L20 15L15 10L20 5L15 0L10 5Z" fill="#fffef9"/></g><rect x="1437.230769230769" y="0" width="79.84615384615384" height="79.84615384615384" fill="#ffffff"/><g transform="translate(1437.23,0) scale(1.996) rotate(0)"><path fill-rule="evenodd" clip-rule="evenodd" d="M10 20C15.5228 20 20 15.5228 20 10C20 4.47715 15.5228 0 10 0C4.47715 0 0 4.47715 0 10C0 15.5228 4.47715 20 10 20ZM10 17C13.866 17 17 13.866 17 10C17 6.13401 13.866 3 10 3C6.13401 3 3 6.13401 3 10C3 13.866 6.13401 17 10 17Z" fill="#fffad2"/></g><g transform="translate(1437.23,39.92) scale(1.996) rotate(0)"><path d="M10 5L5 0L0 5L5 10L0 15L5 20L10 15L15 20L20 15L15 10L20 5L15 0L10 5Z" fill="#f9f9fc"/></g><rect x="1517.0769230769229" y="0" width="79.84615384615384" height="79.84615384615384" fill="#ffffff"/><rect x="1676.7692307692307" y="0" width="79.84615384615384" height="79.84615384615384" fill="#ffffff"/><g transform="translate(1716.69,0) scale(1.996) rotate(0)"><path d="M10 5L5 0L0 5L5 10L0 15L5 20L10 15L15 20L20 15L15 10L20 5L15 0L10 5Z" fill="#fffbdc"/></g><rect x="239.53846153846152" y="79.84615384615384" width="79.84615384615384" height="79.84615384615384" fill="#ffffff"/><g transform="translate(239.54,79.85) scale(1.996) rotate(0)"><path d="M10 5L5 0L0 5L5 10L0 15L5 20L10 15L15 20L20 15L15 10L20 5L15 0L10 5Z" fill="#dee1f1"/></g><g transform="translate(279.46,79.85) scale(1.996) rotate(0)"><path fill-rule="evenodd" clip-rule="evenodd" d="M10 20C15.5228 20 20 15.5228 20 10C20 4.47715 15.5228 0 10 0C4.47715 0 0 4.47715 0 10C0 15.5228 4.47715 20 10 20ZM10 17C13.866 17 17 13.866 17 10C17 6.13401 13.866 3 10 3C6.13401 3 3 6.13401 3 10C3 13.866 6.13401 17 10 17Z" fill="#eef0f8"/></g><g transform="translate(279.46,119.77) scale(1.996) rotate(0)"><path d="M10 5L5 0L0 5L5 10L0 15L5 20L10 15L15 20L20 15L15 10L20 5L15 0L10 5Z" fill="#e6e8f4"/></g><rect x="319.38461538461536" y="79.84615384615384" width="79.84615384615384" height="79.84615384615384" fill="#ffffff"/><g transform="translate(319.38,119.77) scale(1.996) rotate(0)"><path d="M10 5L5 0L0 5L5 10L0 15L5 20L10 15L15 20L20 15L15 10L20 5L15 0L10 5Z" fill="#e5e7f4"/></g><rect x="479.07692307692304" y="79.84615384615384" width="79.84615384615384" height="79.84615384615384" fill="#ffffff"/><g transform="translate(479.08,79.85) scale(1.996) rotate(0)"><path d="M10 5L5 0L0 5L5 10L0 15L5 20L10 15L15 20L20 15L15 10L20 5L15 0L10 5Z" fill="#fffdeb"/></g><g transform="translate(519,79.85) scale(1.996) rotate(0)"><path fill-rule="evenodd" clip-rule="evenodd" d="M10 20C15.5228 20 20 15.5228 20 10C20 4.47715 15.5228 0 10 0C4.47715 0 0 4.47715 0 10C0 15.5228 4.47715 20 10 20ZM10 17C13.866 17 17 13.866 17 10C17 6.13401 13.866 3 10 3C6.13401 3 3 6.13401 3 10C3 13.866 6.13401 17 10 17Z" fill="#fffef5"/></g><rect x="798.4615384615383" y="79.84615384615384" width="79.84615384615384" height="79.84615384615384" fill="#ffffff"/><g transform="translate(838.38,119.77) scale(1.996) rotate(0)"><path fill-rule="evenodd" clip-rule="evenodd" d="M10 20C15.5228 20 20 15.5228 20 10C20 4.47715 15.5228 0 10 0C4.47715 0 0 4.47715 0 10C0 15.5228 4.47715 20 10 20ZM10 17C13.866 17 17 13.866 17 10C17 6.13401 13.866 3 10 3C6.13401 3 3 6.13401 3 10C3 13.866 6.13401 17 10 17Z" fill="#fffce2"/></g><rect x="878.3076923076923" y="79.84615384615384" width="79.84615384615384" height="79.84615384615384" fill="#ffffff"/><g transform="translate(878.31,79.85) scale(1.996) rotate(0)"><path fill-rule="evenodd" clip-rule="evenodd" d="M10 20C15.5228 20 20 15.5228 20 10C20 4.47715 15.5228 0 10 0C4.47715 0 0 4.47715 0 10C0 15.5228 4.47715 20 10 20ZM10 17C13.866 17 17 13.866 17 10C17 6.13401 13.866 3 10 3C6.13401 3 3 6.13401 3 10C3 13.866 6.13401 17 10 17Z" fill="#fafbfd"/></g><g transform="translate(878.31,119.77) scale(1.996) rotate(0)"><path fill-rule="evenodd" clip-rule="evenodd" d="M10 20C15.5228 20 20 15.5228 20 10C20 4.47715 15.5228 0 10 0C4.47715 0 0 4.47715 0 10C0 15.5228 4.47715 20 10 20ZM10 17C13.866 17 17 13.866 17 10C17 6.13401 13.866 3 10 3C6.13401 3 3 6.13401 3 10C3 13.866 6.13401 17 10 17Z" fill="#fffce6"/></g><rect x="958.1538461538461" y="79.84615384615384" width="79.84615384615384" height="79.84615384615384" fill="#ffffff"/><g transform="translate(958.15,79.85) scale(1.996) rotate(0)"><path fill-rule="evenodd" clip-rule="evenodd" d="M10 20C15.5228 20 20 15.5228 20 10C20 4.47715 15.5228 0 10 0C4.47715 0 0 4.47715 0 10C0 15.5228 4.47715 20 10 20ZM10 17C13.866 17 17 13.866 17 10C17 6.13401 13.866 3 10 3C6.13401 3 3 6.13401 3 10C3 13.866 6.13401 17 10 17Z" fill="#fffef1"/></g><g transform="translate(998.08,119.77) scale(1.996) rotate(0)"><path d="M10 5L5 0L0 5L5 10L0 15L5 20L10 15L15 20L20 15L15 10L20 5L15 0L10 5Z" fill="#fffad4"/></g><rect x="1038" y="79.84615384615384" width="79.84615384615384" height="79.84615384615384" fill="#ffffff"/><g transform="translate(1077.92,79.85) scale(1.996) rotate(0)"><path fill-rule="evenodd" clip-rule="evenodd" d="M10 20C15.5228 20 20 15.5228 20 10C20 4.47715 15.5228 0 10 0C4.47715 0 0 4.47715 0 10C0 15.5228 4.47715 20 10 20ZM10 17C13.866 17 17 13.866 17 10C17 6.13401 13.866 3 10 3C6.13401 3 3 6.13401 3 10C3 13.866 6.13401 17 10 17Z" fill="#e1e4f3"/></g><g transform="translate(1077.92,119.77) scale(1.996) rotate(0)"><path d="M10 5L5 0L0 5L5 10L0 15L5 20L10 15L15 20L20 15L15 10L20 5L15 0L10 5Z" fill="#fffef6"/></g><rect x="1437.230769230769" y="79.84615384615384" width="79.84615384615384" height="79.84615384615384" fill="#ffffff"/><g transform="translate(1437.23,79.85) scale(1.996) rotate(0)"><path fill-rule="evenodd" clip-rule="evenodd" d="M10 20C15.5228 20 20 15.5228 20 10C20 4.47715 15.5228 0 10 0C4.47715 0 0 4.47715 0 10C0 15.5228 4.47715 20 10 20ZM10 17C13.866 17 17 13.866 17 10C17 6.13401 13.866 3 10 3C6.13401 3 3 6.13401 3 10C3 13.866 6.13401 17 10 17Z" fill="#fffce3"/></g><g transform="translate(1437.23,119.77) scale(1.996) rotate(0)"><path fill-rule="evenodd" clip-rule="evenodd" d="M10 20C15.5228 20 20 15.5228 20 10C20 4.47715 15.5228 0 10 0C4.47715 0 0 4.47715 0 10C0 15.5228 4.47715 20 10 20ZM10 17C13.866 17 17 13.866 17 10C17 6.13401 13.866 3 10 3C6.13401 3 3 6.13401 3 10C3 13.866 6.13401 17 10 17Z" fill="#fffce4"/></g><rect x="1596.9230769230767" y="79.84615384615384" width="79.84615384615384" height="79.84615384615384" fill="#ffffff"/><g transform="translate(1596.92,79.85) scale(1.996) rotate(0)"><path d="M10 5L5 0L0 5L5 10L0 15L5 20L10 15L15 20L20 15L15 10L20 5L15 0L10 5Z" fill="#dee1f1"/></g><rect x="239.53846153846152" y="159.69230769230768" width="79.84615384615384" height="79.84615384615384" fill="#ffffff"/><g transform="translate(279.46,159.69) scale(1.996) rotate(0)"><path fill-rule="evenodd" clip-rule="evenodd" d="M10 20C15.5228 20 20 15.5228 20 10C20 4.47715 15.5228 0 10 0C4.47715 0 0 4.47715 0 10C0 15.5228 4.47715 20 10 20ZM10 17C13.866 17 17 13.866 17 10C17 6.13401 13.866 3 10 3C6.13401 3 3 6.13401 3 10C3 13.866 6.13401 17 10 17Z" fill="#fffffa"/></g><g transform="translate(239.54,199.62) scale(1.996) rotate(0)"><path d="M10 5L5 0L0 5L5 10L0 15L5 20L10 15L15 20L20 15L15 10L20 5L15 0L10 5Z" fill="#fffffd"/></g><rect x="319.38461538461536" y="159.69230769230768" width="79.84615384615384" height="79.84615384615384" fill="#ffffff"/><g transform="translate(319.38,159.69) scale(1.996) rotate(0)"><path d="M10 5L5 0L0 5L5 10L0 15L5 20L10 15L15 20L20 15L15 10L20 5L15 0L10 5Z" fill="#e6e8f4"/></g><g transform="translate(319.38,199.62) scale(1.996) rotate(0)"><path fill-rule="evenodd" clip-rule="evenodd" d="M10 20C15.5228 20 20 15.5228 20 10C20 4.47715 15.5228 0 10 0C4.47715 0 0 4.47715 0 10C0 15.5228 4.47715 20 10 20ZM10 17C13.866 17 17 13.866 17 10C17 6.13401 13.866 3 10 3C6.13401 3 3 6.13401 3 10C3 13.866 6.13401 17 10 17Z" fill="#fffce6"/></g><rect x="718.6153846153845" y="159.69230769230768" width="79.84615384615384" height="79.84615384615384" fill="#ffffff"/><rect x="798.4615384615383" y="159.69230769230768" width="79.84615384615384" height="79.84615384615384" fill="#ffffff"/><g transform="translate(838.38,159.69) scale(1.996) rotate(0)"><path d="M10 5L5 0L0 5L5 10L0 15L5 20L10 15L15 20L20 15L15 10L20 5L15 0L10 5Z" fill="#fcfcfe"/></g><rect x="958.1538461538461" y="159.69230769230768" width="79.84615384615384" height="79.84615384615384" fill="#ffffff"/><g transform="translate(998.08,159.69) scale(1.996) rotate(0)"><path fill-rule="evenodd" clip-rule="evenodd" d="M10 20C15.5228 20 20 15.5228 20 10C20 4.47715 15.5228 0 10 0C4.47715 0 0 4.47715 0 10C0 15.5228 4.47715 20 10 20ZM10 17C13.866 17 17 13.866 17 10C17 6.13401 13.866 3 10 3C6.13401 3 3 6.13401 3 10C3 13.866 6.13401 17 10 17Z" fill="#fffce6"/></g><rect x="1437.230769230769" y="159.69230769230768" width="79.84615384615384" height="79.84615384615384" fill="#ffffff"/><g transform="translate(1437.23,159.69) scale(1.996) rotate(0)"><path fill-rule="evenodd" clip-rule="evenodd" d="M10 20C15.5228 20 20 15.5228 20 10C20 4.47715 15.5228 0 10 0C4.47715 0 0 4.47715 0 10C0 15.5228 4.47715 20 10 20ZM10 17C13.866 17 17 13.866 17 10C17 6.13401 13.866 3 10 3C6.13401 3 3 6.13401 3 10C3 13.866 6.13401 17 10 17Z" fill="#fcfcfe"/></g><g transform="translate(1437.23,199.62) scale(1.996) rotate(0)"><path fill-rule="evenodd" clip-rule="evenodd" d="M10 20C15.5228 20 20 15.5228 20 10C20 4.47715 15.5228 0 10 0C4.47715 0 0 4.47715 0 10C0 15.5228 4.47715 20 10 20ZM10 17C13.866 17 17 13.866 17 10C17 6.13401 13.866 3 10 3C6.13401 3 3 6.13401 3 10C3 13.866 6.13401 17 10 17Z" fill="#fffde9"/></g><rect x="1517.0769230769229" y="159.69230769230768" width="79.84615384615384" height="79.84615384615384" fill="#ffffff"/><g transform="translate(1517.08,199.62) scale(1.996) rotate(0)"><path fill-rule="evenodd" clip-rule="evenodd" d="M10 20C15.5228 20 20 15.5228 20 10C20 4.47715 15.5228 0 10 0C4.47715 0 0 4.47715 0 10C0 15.5228 4.47715 20 10 20ZM10 17C13.866 17 17 13.866 17 10C17 6.13401 13.866 3 10 3C6.13401 3 3 6.13401 3 10C3 13.866 6.13401 17 10 17Z" fill="#eaebf6"/></g><g transform="translate(1557,199.62) scale(1.996) rotate(0)"><path fill-rule="evenodd" clip-rule="evenodd" d="M10 20C15.5228 20 20 15.5228 20 10C20 4.47715 15.5228 0 10 0C4.47715 0 0 4.47715 0 10C0 15.5228 4.47715 20 10 20ZM10 17C13.866 17 17 13.866 17 10C17 6.13401 13.866 3 10 3C6.13401 3 3 6.13401 3 10C3 13.866 6.13401 17 10 17Z" fill="#f8f9fc"/></g><rect x="1676.7692307692307" y="159.69230769230768" width="79.84615384615384" height="79.84615384615384" fill="#ffffff"/><rect x="79.84615384615384" y="239.53846153846152" width="79.84615384615384" height="79.84615384615384" fill="#ffffff"/><g transform="translate(119.77,239.54) scale(1.996) rotate(0)"><path fill-rule="evenodd" clip-rule="evenodd" d="M10 20C15.5228 20 20 15.5228 20 10C20 4.47715 15.5228 0 10 0C4.47715 0 0 4.47715 0 10C0 15.5228 4.47715 20 10 20ZM10 17C13.866 17 17 13.866 17 10C17 6.13401 13.866 3 10 3C6.13401 3 3 6.13401 3 10C3 13.866 6.13401 17 10 17Z" fill="#f7f8fc"/></g><g transform="translate(119.77,279.46) scale(1.996) rotate(0)"><path fill-rule="evenodd" clip-rule="evenodd" d="M10 20C15.5228 20 20 15.5228 20 10C20 4.47715 15.5228 0 10 0C4.47715 0 0 4.47715 0 10C0 15.5228 4.47715 20 10 20ZM10 17C13.866 17 17 13.866 17 10C17 6.13401 13.866 3 10 3C6.13401 3 3 6.13401 3 10C3 13.866 6.13401 17 10 17Z" fill="#e5e7f4"/></g><rect x="399.23076923076917" y="239.53846153846152" width="79.84615384615384" height="79.84615384615384" fill="#ffffff"/><g transform="translate(399.23,239.54) scale(1.996) rotate(0)"><path d="M10 5L5 0L0 5L5 10L0 15L5 20L10 15L15 20L20 15L15 10L20 5L15 0L10 5Z" fill="#fffce3"/></g><g transform="translate(399.23,279.46) scale(1.996) rotate(0)"><path fill-rule="evenodd" clip-rule="evenodd" d="M10 20C15.5228 20 20 15.5228 20 10C20 4.47715 15.5228 0 10 0C4.47715 0 0 4.47715 0 10C0 15.5228 4.47715 20 10 20ZM10 17C13.866 17 17 13.866 17 10C17 6.13401 13.866 3 10 3C6.13401 3 3 6.13401 3 10C3 13.866 6.13401 17 10 17Z" fill="#e5e7f4"/></g><rect x="479.07692307692304" y="239.53846153846152" width="79.84615384615384" height="79.84615384615384" fill="#ffffff"/><g transform="translate(519,239.54) scale(1.996) rotate(0)"><path fill-rule="evenodd" clip-rule="evenodd" d="M10 20C15.5228 20 20 15.5228 20 10C20 4.47715 15.5228 0 10 0C4.47715 0 0 4.47715 0 10C0 15.5228 4.47715 20 10 20ZM10 17C13.866 17 17 13.866 17 10C17 6.13401 13.866 3 10 3C6.13401 3 3 6.13401 3 10C3 13.866 6.13401 17 10 17Z" fill="#fffad4"/></g><g transform="translate(479.08,279.46) scale(1.996) rotate(0)"><path d="M10 5L5 0L0 5L5 10L0 15L5 20L10 15L15 20L20 15L15 10L20 5L15 0L10 5Z" fill="#fffad5"/></g><g transform="translate(519,279.46) scale(1.996) rotate(0)"><path d="M10 5L5 0L0 5L5 10L0 15L5 20L10 15L15 20L20 15L15 10L20 5L15 0L10 5Z" fill="#e9ebf6"/></g><rect x="878.3076923076923" y="239.53846153846152" width="79.84615384615384" height="79.84615384615384" fill="#ffffff"/><g transform="translate(878.31,239.54) scale(1.996) rotate(0)"><path fill-rule="evenodd" clip-rule="evenodd" d="M10 20C15.5228 20 20 15.5228 20 10C20 4.47715 15.5228 0 10 0C4.47715 0 0 4.47715 0 10C0 15.5228 4.47715 20 10 20ZM10 17C13.866 17 17 13.866 17 10C17 6.13401 13.866 3 10 3C6.13401 3 3 6.13401 3 10C3 13.866 6.13401 17 10 17Z" fill="#f7f8fc"/></g><g transform="translate(878.31,279.46) scale(1.996) rotate(0)"><path fill-rule="evenodd" clip-rule="evenodd" d="M10 20C15.5228 20 20 15.5228 20 10C20 4.47715 15.5228 0 10 0C4.47715 0 0 4.47715 0 10C0 15.5228 4.47715 20 10 20ZM10 17C13.866 17 17 13.866 17 10C17 6.13401 13.866 3 10 3C6.13401 3 3 6.13401 3 10C3 13.866 6.13401 17 10 17Z" fill="#dfe2f2"/></g><g transform="translate(918.23,279.46) scale(1.996) rotate(0)"><path fill-rule="evenodd" clip-rule="evenodd" d="M10 20C15.5228 20 20 15.5228 20 10C20 4.47715 15.5228 0 10 0C4.47715 0 0 4.47715 0 10C0 15.5228 4.47715 20 10 20ZM10 17C13.866 17 17 13.866 17 10C17 6.13401 13.866 3 10 3C6.13401 3 3 6.13401 3 10C3 13.866 6.13401 17 10 17Z" fill="#fffdec"/></g><rect x="1117.8461538461538" y="239.53846153846152" width="79.84615384615384" height="79.84615384615384" fill="#ffffff"/><rect x="1357.3846153846152" y="239.53846153846152" width="79.84615384615384" height="79.84615384615384" fill="#ffffff"/><rect x="159.69230769230768" y="319.38461538461536" width="79.84615384615384" height="79.84615384615384" fill="#ffffff"/><g transform="translate(159.69,319.38) scale(1.996) rotate(0)"><path d="M10 5L5 0L0 5L5 10L0 15L5 20L10 15L15 20L20 15L15 10L20 5L15 0L10 5Z" fill="#fffdf0"/></g><rect x="319.38461538461536" y="319.38461538461536" width="79.84615384615384" height="79.84615384615384" fill="#ffffff"/><g transform="translate(319.38,359.31) scale(1.996) rotate(0)"><path d="M10 5L5 0L0 5L5 10L0 15L5 20L10 15L15 20L20 15L15 10L20 5L15 0L10 5Z" fill="#fffbdc"/></g><rect x="399.23076923076917" y="319.38461538461536" width="79.84615384615384" height="79.84615384615384" fill="#ffffff"/><g transform="translate(439.15,319.38) scale(1.996) rotate(0)"><path fill-rule="evenodd" clip-rule="evenodd" d="M10 20C15.5228 20 20 15.5228 20 10C20 4.47715 15.5228 0 10 0C4.47715 0 0 4.47715 0 10C0 15.5228 4.47715 20 10 20ZM10 17C13.866 17 17 13.866 17 10C17 6.13401 13.866 3 10 3C6.13401 3 3 6.13401 3 10C3 13.866 6.13401 17 10 17Z" fill="#fffce2"/></g><g transform="translate(439.15,359.31) scale(1.996) rotate(0)"><path d="M10 5L5 0L0 5L5 10L0 15L5 20L10 15L15 20L20 15L15 10L20 5L15 0L10 5Z" fill="#dde0f1"/></g><rect x="718.6153846153845" y="319.38461538461536" width="79.84615384615384" height="79.84615384615384" fill="#ffffff"/><g transform="translate(718.62,319.38) scale(1.996) rotate(0)"><path fill-rule="evenodd" clip-rule="evenodd" d="M10 20C15.5228 20 20 15.5228 20 10C20 4.47715 15.5228 0 10 0C4.47715 0 0 4.47715 0 10C0 15.5228 4.47715 20 10 20ZM10 17C13.866 17 17 13.866 17 10C17 6.13401 13.866 3 10 3C6.13401 3 3 6.13401 3 10C3 13.866 6.13401 17 10 17Z" fill="#fffdea"/></g><g transform="translate(758.54,319.38) scale(1.996) rotate(0)"><path fill-rule="evenodd" clip-rule="evenodd" d="M10 20C15.5228 20 20 15.5228 20 10C20 4.47715 15.5228 0 10 0C4.47715 0 0 4.47715 0 10C0 15.5228 4.47715 20 10 20ZM10 17C13.866 17 17 13.866 17 10C17 6.13401 13.866 3 10 3C6.13401 3 3 6.13401 3 10C3 13.866 6.13401 17 10 17Z" fill="#fffef7"/></g><g transform="translate(718.62,359.31) scale(1.996) rotate(0)"><path d="M10 5L5 0L0 5L5 10L0 15L5 20L10 15L15 20L20 15L15 10L20 5L15 0L10 5Z" fill="#e5e7f4"/></g><rect x="958.1538461538461" y="319.38461538461536" width="79.84615384615384" height="79.84615384615384" fill="#ffffff"/><rect x="1117.8461538461538" y="319.38461538461536" width="79.84615384615384" height="79.84615384615384" fill="#ffffff"/><g transform="translate(1117.85,319.38) scale(1.996) rotate(0)"><path fill-rule="evenodd" clip-rule="evenodd" d="M10 20C15.5228 20 20 15.5228 20 10C20 4.47715 15.5228 0 10 0C4.47715 0 0 4.47715 0 10C0 15.5228 4.47715 20 10 20ZM10 17C13.866 17 17 13.866 17 10C17 6.13401 13.866 3 10 3C6.13401 3 3 6.13401 3 10C3 13.866 6.13401 17 10 17Z" fill="#f6f7fb"/></g><g transform="translate(1117.85,359.31) scale(1.996) rotate(0)"><path d="M10 5L5 0L0 5L5 10L0 15L5 20L10 15L15 20L20 15L15 10L20 5L15 0L10 5Z" fill="#f2f3f9"/></g><rect x="1197.6923076923076" y="319.38461538461536" width="79.84615384615384" height="79.84615384615384" fill="#ffffff"/><g transform="translate(1237.62,319.38) scale(1.996) rotate(0)"><path fill-rule="evenodd" clip-rule="evenodd" d="M10 20C15.5228 20 20 15.5228 20 10C20 4.47715 15.5228 0 10 0C4.47715 0 0 4.47715 0 10C0 15.5228 4.47715 20 10 20ZM10 17C13.866 17 17 13.866 17 10C17 6.13401 13.866 3 10 3C6.13401 3 3 6.13401 3 10C3 13.866 6.13401 17 10 17Z" fill="#dcdff0"/></g><g transform="translate(1197.69,359.31) scale(1.996) rotate(0)"><path fill-rule="evenodd" clip-rule="evenodd" d="M10 20C15.5228 20 20 15.5228 20 10C20 4.47715 15.5228 0 10 0C4.47715 0 0 4.47715 0 10C0 15.5228 4.47715 20 10 20ZM10 17C13.866 17 17 13.866 17 10C17 6.13401 13.866 3 10 3C6.13401 3 3 6.13401 3 10C3 13.866 6.13401 17 10 17Z" fill="#fffce5"/></g><rect x="1517.0769230769229" y="319.38461538461536" width="79.84615384615384" height="79.84615384615384" fill="#ffffff"/><rect x="0" y="399.23076923076917" width="79.84615384615384" height="79.84615384615384" fill="#ffffff"/><rect x="319.38461538461536" y="399.23076923076917" width="79.84615384615384" height="79.84615384615384" fill="#ffffff"/><rect x="558.9230769230769" y="399.23076923076917" width="79.84615384615384" height="79.84615384615384" fill="#ffffff"/><g transform="translate(558.92,399.23) scale(1.996) rotate(0)"><path fill-rule="evenodd" clip-rule="evenodd" d="M10 20C15.5228 20 20 15.5228 20 10C20 4.47715 15.5228 0 10 0C4.47715 0 0 4.47715 0 10C0 15.5228 4.47715 20 10 20ZM10 17C13.866 17 17 13.866 17 10C17 6.13401 13.866 3 10 3C6.13401 3 3 6.13401 3 10C3 13.866 6.13401 17 10 17Z" fill="#fffef8"/></g><g transform="translate(598.85,439.15) scale(1.996) rotate(0)"><path fill-rule="evenodd" clip-rule="evenodd" d="M10 20C15.5228 20 20 15.5228 20 10C20 4.47715 15.5228 0 10 0C4.47715 0 0 4.47715 0 10C0 15.5228 4.47715 20 10 20ZM10 17C13.866 17 17 13.866 17 10C17 6.13401 13.866 3 10 3C6.13401 3 3 6.13401 3 10C3 13.866 6.13401 17 10 17Z" fill="#f7f7fb"/></g><rect x="1038" y="399.23076923076917" width="79.84615384615384" height="79.84615384615384" fill="#ffffff"/><rect x="1437.230769230769" y="399.23076923076917" width="79.84615384615384" height="79.84615384615384" fill="#ffffff"/><rect x="1596.9230769230767" y="399.23076923076917" width="79.84615384615384" height="79.84615384615384" fill="#ffffff"/><g transform="translate(1636.85,399.23) scale(1.996) rotate(0)"><path d="M10 5L5 0L0 5L5 10L0 15L5 20L10 15L15 20L20 15L15 10L20 5L15 0L10 5Z" fill="#fcfcfe"/></g><rect x="558.9230769230769" y="479.07692307692304" width="79.84615384615384" height="79.84615384615384" fill="#ffffff"/><rect x="958.1538461538461" y="479.07692307692304" width="79.84615384615384" height="79.84615384615384" fill="#ffffff"/><g transform="translate(998.08,479.08) scale(1.996) rotate(0)"><path fill-rule="evenodd" clip-rule="evenodd" d="M10 20C15.5228 20 20 15.5228 20 10C20 4.47715 15.5228 0 10 0C4.47715 0 0 4.47715 0 10C0 15.5228 4.47715 20 10 20ZM10 17C13.866 17 17 13.866 17 10C17 6.13401 13.866 3 10 3C6.13401 3 3 6.13401 3 10C3 13.866 6.13401 17 10 17Z" fill="#f9fafd"/></g><g transform="translate(998.08,519) scale(1.996) rotate(0)"><path fill-rule="evenodd" clip-rule="evenodd" d="M10 20C15.5228 20 20 15.5228 20 10C20 4.47715 15.5228 0 10 0C4.47715 0 0 4.47715 0 10C0 15.5228 4.47715 20 10 20ZM10 17C13.866 17 17 13.866 17 10C17 6.13401 13.866 3 10 3C6.13401 3 3 6.13401 3 10C3 13.866 6.13401 17 10 17Z" fill="#fffad3"/></g><rect x="1437.230769230769" y="479.07692307692304" width="79.84615384615384" height="79.84615384615384" fill="#ffffff"/><g transform="translate(1477.15,479.08) scale(1.996) rotate(0)"><path d="M10 5L5 0L0 5L5 10L0 15L5 20L10 15L15 20L20 15L15 10L20 5L15 0L10 5Z" fill="#fffad2"/></g><rect x="1517.0769230769229" y="479.07692307692304" width="79.84615384615384" height="79.84615384615384" fill="#ffffff"/><g transform="translate(1517.08,519) scale(1.996) rotate(0)"><path d="M10 5L5 0L0 5L5 10L0 15L5 20L10 15L15 20L20 15L15 10L20 5L15 0L10 5Z" fill="#eeeff8"/></g><rect x="1596.9230769230767" y="479.07692307692304" width="79.84615384615384" height="79.84615384615384" fill="#ffffff"/><g transform="translate(1596.92,519) scale(1.996) rotate(0)"><path fill-rule="evenodd" clip-rule="evenodd" d="M10 20C15.5228 20 20 15.5228 20 10C20 4.47715 15.5228 0 10 0C4.47715 0 0 4.47715 0 10C0 15.5228 4.47715 20 10 20ZM10 17C13.866 17 17 13.866 17 10C17 6.13401 13.866 3 10 3C6.13401 3 3 6.13401 3 10C3 13.866 6.13401 17 10 17Z" fill="#dbdef0"/></g><rect x="0" y="558.9230769230769" width="79.84615384615384" height="79.84615384615384" fill="#ffffff"/><g transform="translate(0,598.85) scale(1.996) rotate(0)"><path d="M10 5L5 0L0 5L5 10L0 15L5 20L10 15L15 20L20 15L15 10L20 5L15 0L10 5Z" fill="#fffef2"/></g><rect x="239.53846153846152" y="558.9230769230769" width="79.84615384615384" height="79.84615384615384" fill="#ffffff"/><g transform="translate(239.54,558.92) scale(1.996) rotate(0)"><path d="M10 5L5 0L0 5L5 10L0 15L5 20L10 15L15 20L20 15L15 10L20 5L15 0L10 5Z" fill="#fbfcfe"/></g><g transform="translate(239.54,598.85) scale(1.996) rotate(0)"><path d="M10 5L5 0L0 5L5 10L0 15L5 20L10 15L15 20L20 15L15 10L20 5L15 0L10 5Z" fill="#fffded"/></g><rect x="479.07692307692304" y="558.9230769230769" width="79.84615384615384" height="79.84615384615384" fill="#ffffff"/><g transform="translate(519,598.85) scale(1.996) rotate(0)"><path fill-rule="evenodd" clip-rule="evenodd" d="M10 20C15.5228 20 20 15.5228 20 10C20 4.47715 15.5228 0 10 0C4.47715 0 0 4.47715 0 10C0 15.5228 4.47715 20 10 20ZM10 17C13.866 17 17 13.866 17 10C17 6.13401 13.866 3 10 3C6.13401 3 3 6.13401 3 10C3 13.866 6.13401 17 10 17Z" fill="#e7e9f5"/></g><rect x="558.9230769230769" y="558.9230769230769" width="79.84615384615384" height="79.84615384615384" fill="#ffffff"/><g transform="translate(598.85,598.85) scale(1.996) rotate(0)"><path fill-rule="evenodd" clip-rule="evenodd" d="M10 20C15.5228 20 20 15.5228 20 10C20 4.47715 15.5228 0 10 0C4.47715 0 0 4.47715 0 10C0 15.5228 4.47715 20 10 20ZM10 17C13.866 17 17 13.866 17 10C17 6.13401 13.866 3 10 3C6.13401 3 3 6.13401 3 10C3 13.866 6.13401 17 10 17Z" fill="#e3e5f3"/></g><rect x="1117.8461538461538" y="558.9230769230769" width="79.84615384615384" height="79.84615384615384" fill="#ffffff"/><g transform="translate(1157.77,598.85) scale(1.996) rotate(0)"><path d="M10 5L5 0L0 5L5 10L0 15L5 20L10 15L15 20L20 15L15 10L20 5L15 0L10 5Z" fill="#e8eaf5"/></g><rect x="1197.6923076923076" y="558.9230769230769" width="79.84615384615384" height="79.84615384615384" fill="#ffffff"/><g transform="translate(1197.69,598.85) scale(1.996) rotate(0)"><path d="M10 5L5 0L0 5L5 10L0 15L5 20L10 15L15 20L20 15L15 10L20 5L15 0L10 5Z" fill="#e9ebf6"/></g><g transform="translate(1237.62,598.85) scale(1.996) rotate(0)"><path fill-rule="evenodd" clip-rule="evenodd" d="M10 20C15.5228 20 20 15.5228 20 10C20 4.47715 15.5228 0 10 0C4.47715 0 0 4.47715 0 10C0 15.5228 4.47715 20 10 20ZM10 17C13.866 17 17 13.866 17 10C17 6.13401 13.866 3 10 3C6.13401 3 3 6.13401 3 10C3 13.866 6.13401 17 10 17Z" fill="#fffcdf"/></g><rect x="1596.9230769230767" y="558.9230769230769" width="79.84615384615384" height="79.84615384615384" fill="#ffffff"/><g transform="translate(1596.92,558.92) scale(1.996) rotate(0)"><path fill-rule="evenodd" clip-rule="evenodd" d="M10 20C15.5228 20 20 15.5228 20 10C20 4.47715 15.5228 0 10 0C4.47715 0 0 4.47715 0 10C0 15.5228 4.47715 20 10 20ZM10 17C13.866 17 17 13.866 17 10C17 6.13401 13.866 3 10 3C6.13401 3 3 6.13401 3 10C3 13.866 6.13401 17 10 17Z" fill="#fffce4"/></g><g transform="translate(1596.92,598.85) scale(1.996) rotate(0)"><path d="M10 5L5 0L0 5L5 10L0 15L5 20L10 15L15 20L20 15L15 10L20 5L15 0L10 5Z" fill="#fffbd9"/></g><g transform="translate(1636.85,598.85) scale(1.996) rotate(0)"><path fill-rule="evenodd" clip-rule="evenodd" d="M10 20C15.5228 20 20 15.5228 20 10C20 4.47715 15.5228 0 10 0C4.47715 0 0 4.47715 0 10C0 15.5228 4.47715 20 10 20ZM10 17C13.866 17 17 13.866 17 10C17 6.13401 13.866 3 10 3C6.13401 3 3 6.13401 3 10C3 13.866 6.13401 17 10 17Z" fill="#fffad2"/></g><rect x="79.84615384615384" y="638.7692307692307" width="79.84615384615384" height="79.84615384615384" fill="#ffffff"/><rect x="558.9230769230769" y="638.7692307692307" width="79.84615384615384" height="79.84615384615384" fill="#ffffff"/><g transform="translate(558.92,638.77) scale(1.996) rotate(0)"><path fill-rule="evenodd" clip-rule="evenodd" d="M10 20C15.5228 20 20 15.5228 20 10C20 4.47715 15.5228 0 10 0C4.47715 0 0 4.47715 0 10C0 15.5228 4.47715 20 10 20ZM10 17C13.866 17 17 13.866 17 10C17 6.13401 13.866 3 10 3C6.13401 3 3 6.13401 3 10C3 13.866 6.13401 17 10 17Z" fill="#e8eaf5"/></g><g transform="translate(598.85,638.77) scale(1.996) rotate(0)"><path fill-rule="evenodd" clip-rule="evenodd" d="M10 20C15.5228 20 20 15.5228 20 10C20 4.47715 15.5228 0 10 0C4.47715 0 0 4.47715 0 10C0 15.5228 4.47715 20 10 20ZM10 17C13.866 17 17 13.866 17 10C17 6.13401 13.866 3 10 3C6.13401 3 3 6.13401 3 10C3 13.866 6.13401 17 10 17Z" fill="#fffde9"/></g><g transform="translate(558.92,678.69) scale(1.996) rotate(0)"><path fill-rule="evenodd" clip-rule="evenodd" d="M10 20C15.5228 20 20 15.5228 20 10C20 4.47715 15.5228 0 10 0C4.47715 0 0 4.47715 0 10C0 15.5228 4.47715 20 10 20ZM10 17C13.866 17 17 13.866 17 10C17 6.13401 13.866 3 10 3C6.13401 3 3 6.13401 3 10C3 13.866 6.13401 17 10 17Z" fill="#ffffff"/></g><rect x="878.3076923076923" y="638.7692307692307" width="79.84615384615384" height="79.84615384615384" fill="#ffffff"/><rect x="1038" y="638.7692307692307" width="79.84615384615384" height="79.84615384615384" fill="#ffffff"/><g transform="translate(1038,638.77) scale(1.996) rotate(0)"><path fill-rule="evenodd" clip-rule="evenodd" d="M10 20C15.5228 20 20 15.5228 20 10C20 4.47715 15.5228 0 10 0C4.47715 0 0 4.47715 0 10C0 15.5228 4.47715 20 10 20ZM10 17C13.866 17 17 13.866 17 10C17 6.13401 13.866 3 10 3C6.13401 3 3 6.13401 3 10C3 13.866 6.13401 17 10 17Z" fill="#fffad2"/></g><g transform="translate(1077.92,678.69) scale(1.996) rotate(0)"><path fill-rule="evenodd" clip-rule="evenodd" d="M10 20C15.5228 20 20 15.5228 20 10C20 4.47715 15.5228 0 10 0C4.47715 0 0 4.47715 0 10C0 15.5228 4.47715 20 10 20ZM10 17C13.866 17 17 13.866 17 10C17 6.13401 13.866 3 10 3C6.13401 3 3 6.13401 3 10C3 13.866 6.13401 17 10 17Z" fill="#fffef6"/></g><rect x="1277.5384615384614" y="638.7692307692307" width="79.84615384615384" height="79.84615384615384" fill="#ffffff"/><g transform="translate(1277.54,638.77) scale(1.996) rotate(0)"><path d="M10 5L5 0L0 5L5 10L0 15L5 20L10 15L15 20L20 15L15 10L20 5L15 0L10 5Z" fill="#eaecf6"/></g><rect x="1676.7692307692307" y="638.7692307692307" width="79.84615384615384" height="79.84615384615384" fill="#ffffff"/><g transform="translate(1676.77,638.77) scale(1.996) rotate(0)"><path d="M10 5L5 0L0 5L5 10L0 15L5 20L10 15L15 20L20 15L15 10L20 5L15 0L10 5Z" fill="#fffbde"/></g><g transform="translate(1716.69,678.69) scale(1.996) rotate(0)"><path d="M10 5L5 0L0 5L5 10L0 15L5 20L10 15L15 20L20 15L15 10L20 5L15 0L10 5Z" fill="#dcdff1"/></g><rect x="0" y="718.6153846153845" width="79.84615384615384" height="79.84615384615384" fill="#ffffff"/><g transform="translate(0,718.62) scale(1.996) rotate(0)"><path fill-rule="evenodd" clip-rule="evenodd" d="M10 20C15.5228 20 20 15.5228 20 10C20 4.47715 15.5228 0 10 0C4.47715 0 0 4.47715 0 10C0 15.5228 4.47715 20 10 20ZM10 17C13.866 17 17 13.866 17 10C17 6.13401 13.866 3 10 3C6.13401 3 3 6.13401 3 10C3 13.866 6.13401 17 10 17Z" fill="#eff0f8"/></g><g transform="translate(39.92,758.54) scale(1.996) rotate(0)"><path d="M10 5L5 0L0 5L5 10L0 15L5 20L10 15L15 20L20 15L15 10L20 5L15 0L10 5Z" fill="#dddff1"/></g><rect x="159.69230769230768" y="718.6153846153845" width="79.84615384615384" height="79.84615384615384" fill="#ffffff"/><g transform="translate(159.69,758.54) scale(1.996) rotate(0)"><path fill-rule="evenodd" clip-rule="evenodd" d="M10 20C15.5228 20 20 15.5228 20 10C20 4.47715 15.5228 0 10 0C4.47715 0 0 4.47715 0 10C0 15.5228 4.47715 20 10 20ZM10 17C13.866 17 17 13.866 17 10C17 6.13401 13.866 3 10 3C6.13401 3 3 6.13401 3 10C3 13.866 6.13401 17 10 17Z" fill="#e0e2f2"/></g><g transform="translate(199.62,758.54) scale(1.996) rotate(0)"><path d="M10 5L5 0L0 5L5 10L0 15L5 20L10 15L15 20L20 15L15 10L20 5L15 0L10 5Z" fill="#fffde8"/></g><rect x="399.23076923076917" y="718.6153846153845" width="79.84615384615384" height="79.84615384615384" fill="#ffffff"/><rect x="479.07692307692304" y="718.6153846153845" width="79.84615384615384" height="79.84615384615384" fill="#ffffff"/><g transform="translate(479.08,718.62) scale(1.996) rotate(0)"><path fill-rule="evenodd" clip-rule="evenodd" d="M10 20C15.5228 20 20 15.5228 20 10C20 4.47715 15.5228 0 10 0C4.47715 0 0 4.47715 0 10C0 15.5228 4.47715 20 10 20ZM10 17C13.866 17 17 13.866 17 10C17 6.13401 13.866 3 10 3C6.13401 3 3 6.13401 3 10C3 13.866 6.13401 17 10 17Z" fill="#fffef4"/></g><rect x="638.7692307692307" y="718.6153846153845" width="79.84615384615384" height="79.84615384615384" fill="#ffffff"/><g transform="translate(638.77,718.62) scale(1.996) rotate(0)"><path d="M10 5L5 0L0 5L5 10L0 15L5 20L10 15L15 20L20 15L15 10L20 5L15 0L10 5Z" fill="#dde0f1"/></g><g transform="translate(678.69,718.62) scale(1.996) rotate(0)"><path fill-rule="evenodd" clip-rule="evenodd" d="M10 20C15.5228 20 20 15.5228 20 10C20 4.47715 15.5228 0 10 0C4.47715 0 0 4.47715 0 10C0 15.5228 4.47715 20 10 20ZM10 17C13.866 17 17 13.866 17 10C17 6.13401 13.866 3 10 3C6.13401 3 3 6.13401 3 10C3 13.866 6.13401 17 10 17Z" fill="#eef0f8"/></g><g transform="translate(638.77,758.54) scale(1.996) rotate(0)"><path fill-rule="evenodd" clip-rule="evenodd" d="M10 20C15.5228 20 20 15.5228 20 10C20 4.47715 15.5228 0 10 0C4.47715 0 0 4.47715 0 10C0 15.5228 4.47715 20 10 20ZM10 17C13.866 17 17 13.866 17 10C17 6.13401 13.866 3 10 3C6.13401 3 3 6.13401 3 10C3 13.866 6.13401 17 10 17Z" fill="#fffefa"/></g><rect x="1517.0769230769229" y="718.6153846153845" width="79.84615384615384" height="79.84615384615384" fill="#ffffff"/><rect x="479.07692307692304" y="798.4615384615383" width="79.84615384615384" height="79.84615384615384" fill="#ffffff"/><g transform="translate(519,798.46) scale(1.996) rotate(0)"><path fill-rule="evenodd" clip-rule="evenodd" d="M10 20C15.5228 20 20 15.5228 20 10C20 4.47715 15.5228 0 10 0C4.47715 0 0 4.47715 0 10C0 15.5228 4.47715 20 10 20ZM10 17C13.866 17 17 13.866 17 10C17 6.13401 13.866 3 10 3C6.13401 3 3 6.13401 3 10C3 13.866 6.13401 17 10 17Z" fill="#fffbd8"/></g><g transform="translate(479.08,838.38) scale(1.996) rotate(0)"><path fill-rule="evenodd" clip-rule="evenodd" d="M10 20C15.5228 20 20 15.5228 20 10C20 4.47715 15.5228 0 10 0C4.47715 0 0 4.47715 0 10C0 15.5228 4.47715 20 10 20ZM10 17C13.866 17 17 13.866 17 10C17 6.13401 13.866 3 10 3C6.13401 3 3 6.13401 3 10C3 13.866 6.13401 17 10 17Z" fill="#fffef2"/></g><rect x="1117.8461538461538" y="798.4615384615383" width="79.84615384615384" height="79.84615384615384" fill="#ffffff"/><g transform="translate(1157.77,798.46) scale(1.996) rotate(0)"><path d="M10 5L5 0L0 5L5 10L0 15L5 20L10 15L15 20L20 15L15 10L20 5L15 0L10 5Z" fill="#fffbde"/></g><rect x="1357.3846153846152" y="798.4615384615383" width="79.84615384615384" height="79.84615384615384" fill="#ffffff"/><g transform="translate(1357.38,838.38) scale(1.996) rotate(0)"><path fill-rule="evenodd" clip-rule="evenodd" d="M10 20C15.5228 20 20 15.5228 20 10C20 4.47715 15.5228 0 10 0C4.47715 0 0 4.47715 0 10C0 15.5228 4.47715 20 10 20ZM10 17C13.866 17 17 13.866 17 10C17 6.13401 13.866 3 10 3C6.13401 3 3 6.13401 3 10C3 13.866 6.13401 17 10 17Z" fill="#ebedf7"/></g><g transform="translate(1397.31,838.38) scale(1.996) rotate(0)"><path d="M10 5L5 0L0 5L5 10L0 15L5 20L10 15L15 20L20 15L15 10L20 5L15 0L10 5Z" fill="#dde0f1"/></g><rect x="1596.9230769230767" y="798.4615384615383" width="79.84615384615384" height="79.84615384615384" fill="#ffffff"/><g transform="translate(1596.92,838.38) scale(1.996) rotate(0)"><path fill-rule="evenodd" clip-rule="evenodd" d="M10 20C15.5228 20 20 15.5228 20 10C20 4.47715 15.5228 0 10 0C4.47715 0 0 4.47715 0 10C0 15.5228 4.47715 20 10 20ZM10 17C13.866 17 17 13.866 17 10C17 6.13401 13.866 3 10 3C6.13401 3 3 6.13401 3 10C3 13.866 6.13401 17 10 17Z" fill="#eaecf6"/></g><rect x="1676.7692307692307" y="798.4615384615383" width="79.84615384615384" height="79.84615384615384" fill="#ffffff"/><g transform="translate(1676.77,798.46) scale(1.996) rotate(0)"><path d="M10 5L5 0L0 5L5 10L0 15L5 20L10 15L15 20L20 15L15 10L20 5L15 0L10 5Z" fill="#fffbde"/></g><g transform="translate(1716.69,798.46) scale(1.996) rotate(0)"><path fill-rule="evenodd" clip-rule="evenodd" d="M10 20C15.5228 20 20 15.5228 20 10C20 4.47715 15.5228 0 10 0C4.47715 0 0 4.47715 0 10C0 15.5228 4.47715 20 10 20ZM10 17C13.866 17 17 13.866 17 10C17 6.13401 13.866 3 10 3C6.13401 3 3 6.13401 3 10C3 13.866 6.13401 17 10 17Z" fill="#fffef4"/></g><g transform="translate(1716.69,838.38) scale(1.996) rotate(0)"><path d="M10 5L5 0L0 5L5 10L0 15L5 20L10 15L15 20L20 15L15 10L20 5L15 0L10 5Z" fill="#f2f3fa"/></g><rect x="159.69230769230768" y="878.3076923076923" width="79.84615384615384" height="79.84615384615384" fill="#ffffff"/><g transform="translate(199.62,918.23) scale(1.996) rotate(0)"><path fill-rule="evenodd" clip-rule="evenodd" d="M10 20C15.5228 20 20 15.5228 20 10C20 4.47715 15.5228 0 10 0C4.47715 0 0 4.47715 0 10C0 15.5228 4.47715 20 10 20ZM10 17C13.866 17 17 13.866 17 10C17 6.13401 13.866 3 10 3C6.13401 3 3 6.13401 3 10C3 13.866 6.13401 17 10 17Z" fill="#f0f1f9"/></g><rect x="399.23076923076917" y="878.3076923076923" width="79.84615384615384" height="79.84615384615384" fill="#ffffff"/><g transform="translate(439.15,878.31) scale(1.996) rotate(0)"><path fill-rule="evenodd" clip-rule="evenodd" d="M10 20C15.5228 20 20 15.5228 20 10C20 4.47715 15.5228 0 10 0C4.47715 0 0 4.47715 0 10C0 15.5228 4.47715 20 10 20ZM10 17C13.866 17 17 13.866 17 10C17 6.13401 13.866 3 10 3C6.13401 3 3 6.13401 3 10C3 13.866 6.13401 17 10 17Z" fill="#fffce5"/></g><rect x="1117.8461538461538" y="878.3076923076923" width="79.84615384615384" height="79.84615384615384" fill="#ffffff"/><g transform="translate(1157.77,918.23) scale(1.996) rotate(0)"><path fill-rule="evenodd" clip-rule="evenodd" d="M10 20C15.5228 20 20 15.5228 20 10C20 4.47715 15.5228 0 10 0C4.47715 0 0 4.47715 0 10C0 15.5228 4.47715 20 10 20ZM10 17C13.866 17 17 13.866 17 10C17 6.13401 13.866 3 10 3C6.13401 3 3 6.13401 3 10C3 13.866 6.13401 17 10 17Z" fill="#fffdeb"/></g><rect x="1197.6923076923076" y="878.3076923076923" width="79.84615384615384" height="79.84615384615384" fill="#ffffff"/><g transform="translate(1237.62,878.31) scale(1.996) rotate(0)"><path d="M10 5L5 0L0 5L5 10L0 15L5 20L10 15L15 20L20 15L15 10L20 5L15 0L10 5Z" fill="#e2e4f3"/></g><g transform="translate(1197.69,918.23) scale(1.996) rotate(0)"><path d="M10 5L5 0L0 5L5 10L0 15L5 20L10 15L15 20L20 15L15 10L20 5L15 0L10 5Z" fill="#fffbdc"/></g><g transform="translate(1237.62,918.23) scale(1.996) rotate(0)"><path d="M10 5L5 0L0 5L5 10L0 15L5 20L10 15L15 20L20 15L15 10L20 5L15 0L10 5Z" fill="#eeeff8"/></g><rect x="1277.5384615384614" y="878.3076923076923" width="79.84615384615384" height="79.84615384615384" fill="#ffffff"/><rect x="1437.230769230769" y="878.3076923076923" width="79.84615384615384" height="79.84615384615384" fill="#ffffff"/><rect x="1596.9230769230767" y="878.3076923076923" width="79.84615384615384" height="79.84615384615384" fill="#ffffff"/><g transform="translate(1596.92,878.31) scale(1.996) rotate(0)"><path d="M10 5L5 0L0 5L5 10L0 15L5 20L10 15L15 20L20 15L15 10L20 5L15 0L10 5Z" fill="#e8eaf5"/></g><g transform="translate(1596.92,918.23) scale(1.996) rotate(0)"><path fill-rule="evenodd" clip-rule="evenodd" d="M10 20C15.5228 20 20 15.5228 20 10C20 4.47715 15.5228 0 10 0C4.47715 0 0 4.47715 0 10C0 15.5228 4.47715 20 10 20ZM10 17C13.866 17 17 13.866 17 10C17 6.13401 13.866 3 10 3C6.13401 3 3 6.13401 3 10C3 13.866 6.13401 17 10 17Z" fill="#ecedf7"/></g><rect x="1676.7692307692307" y="878.3076923076923" width="79.84615384615384" height="79.84615384615384" fill="#ffffff"/><rect x="0" y="958.1538461538461" width="79.84615384615384" height="79.84615384615384" fill="#ffffff"/><rect x="319.38461538461536" y="958.1538461538461" width="79.84615384615384" height="79.84615384615384" fill="#ffffff"/><g transform="translate(319.38,958.15) scale(1.996) rotate(0)"><path fill-rule="evenodd" clip-rule="evenodd" d="M10 20C15.5228 20 20 15.5228 20 10C20 4.47715 15.5228 0 10 0C4.47715 0 0 4.47715 0 10C0 15.5228 4.47715 20 10 20ZM10 17C13.866 17 17 13.866 17 10C17 6.13401 13.866 3 10 3C6.13401 3 3 6.13401 3 10C3 13.866 6.13401 17 10 17Z" fill="#fffad1"/></g><g transform="translate(359.31,958.15) scale(1.996) rotate(0)"><path fill-rule="evenodd" clip-rule="evenodd" d="M10 20C15.5228 20 20 15.5228 20 10C20 4.47715 15.5228 0 10 0C4.47715 0 0 4.47715 0 10C0 15.5228 4.47715 20 10 20ZM10 17C13.866 17 17 13.866 17 10C17 6.13401 13.866 3 10 3C6.13401 3 3 6.13401 3 10C3 13.866 6.13401 17 10 17Z" fill="#fffad4"/></g><rect x="399.23076923076917" y="958.1538461538461" width="79.84615384615384" height="79.84615384615384" fill="#ffffff"/><rect x="558.9230769230769" y="958.1538461538461" width="79.84615384615384" height="79.84615384615384" fill="#ffffff"/><g transform="translate(598.85,958.15) scale(1.996) rotate(0)"><path fill-rule="evenodd" clip-rule="evenodd" d="M10 20C15.5228 20 20 15.5228 20 10C20 4.47715 15.5228 0 10 0C4.47715 0 0 4.47715 0 10C0 15.5228 4.47715 20 10 20ZM10 17C13.866 17 17 13.866 17 10C17 6.13401 13.866 3 10 3C6.13401 3 3 6.13401 3 10C3 13.866 6.13401 17 10 17Z" fill="#f0f1f9"/></g><g transform="translate(558.92,998.08) scale(1.996) rotate(0)"><path fill-rule="evenodd" clip-rule="evenodd" d="M10 20C15.5228 20 20 15.5228 20 10C20 4.47715 15.5228 0 10 0C4.47715 0 0 4.47715 0 10C0 15.5228 4.47715 20 10 20ZM10 17C13.866 17 17 13.866 17 10C17 6.13401 13.866 3 10 3C6.13401 3 3 6.13401 3 10C3 13.866 6.13401 17 10 17Z" fill="#fdfdfe"/></g><g transform="translate(598.85,998.08) scale(1.996) rotate(0)"><path fill-rule="evenodd" clip-rule="evenodd" d="M10 20C15.5228 20 20 15.5228 20 10C20 4.47715 15.5228 0 10 0C4.47715 0 0 4.47715 0 10C0 15.5228 4.47715 20 10 20ZM10 17C13.866 17 17 13.866 17 10C17 6.13401 13.866 3 10 3C6.13401 3 3 6.13401 3 10C3 13.866 6.13401 17 10 17Z" fill="#f5f6fb"/></g><rect x="958.1538461538461" y="958.1538461538461" width="79.84615384615384" height="79.84615384615384" fill="#ffffff"/><rect x="1197.6923076923076" y="958.1538461538461" width="79.84615384615384" height="79.84615384615384" fill="#ffffff"/><g transform="translate(1197.69,958.15) scale(1.996) rotate(0)"><path fill-rule="evenodd" clip-rule="evenodd" d="M10 20C15.5228 20 20 15.5228 20 10C20 4.47715 15.5228 0 10 0C4.47715 0 0 4.47715 0 10C0 15.5228 4.47715 20 10 20ZM10 17C13.866 17 17 13.866 17 10C17 6.13401 13.866 3 10 3C6.13401 3 3 6.13401 3 10C3 13.866 6.13401 17 10 17Z" fill="#fffad4"/></g><g transform="translate(1237.62,958.15) scale(1.996) rotate(0)"><path d="M10 5L5 0L0 5L5 10L0 15L5 20L10 15L15 20L20 15L15 10L20 5L15 0L10 5Z" fill="#eff0f8"/></g><rect x="1277.5384615384614" y="958.1538461538461" width="79.84615384615384" height="79.84615384615384" fill="#ffffff"/><g transform="translate(1277.54,958.15) scale(1.996) rotate(0)"><path d="M10 5L5 0L0 5L5 10L0 15L5 20L10 15L15 20L20 15L15 10L20 5L15 0L10 5Z" fill="#fcfcfe"/></g><g transform="translate(1317.46,958.15) scale(1.996) rotate(0)"><path d="M10 5L5 0L0 5L5 10L0 15L5 20L10 15L15 20L20 15L15 10L20 5L15 0L10 5Z" fill="#e4e7f4"/></g><g transform="translate(1277.54,998.08) scale(1.996) rotate(0)"><path d="M10 5L5 0L0 5L5 10L0 15L5 20L10 15L15 20L20 15L15 10L20 5L15 0L10 5Z" fill="#fffbde"/></g><rect x="1517.0769230769229" y="958.1538461538461" width="79.84615384615384" height="79.84615384615384" fill="#ffffff"/><g transform="translate(1517.08,958.15) scale(1.996) rotate(0)"><path fill-rule="evenodd" clip-rule="evenodd" d="M10 20C15.5228 20 20 15.5228 20 10C20 4.47715 15.5228 0 10 0C4.47715 0 0 4.47715 0 10C0 15.5228 4.47715 20 10 20ZM10 17C13.866 17 17 13.866 17 10C17 6.13401 13.866 3 10 3C6.13401 3 3 6.13401 3 10C3 13.866 6.13401 17 10 17Z" fill="#fffef5"/></g><rect x="0" y="1038" width="79.84615384615384" height="79.84615384615384" fill="#ffffff"/><g transform="translate(39.92,1038) scale(1.996) rotate(0)"><path d="M10 5L5 0L0 5L5 10L0 15L5 20L10 15L15 20L20 15L15 10L20 5L15 0L10 5Z" fill="#fafafd"/></g><rect x="159.69230769230768" y="1038" width="79.84615384615384" height="79.84615384615384" fill="#ffffff"/><rect x="319.38461538461536" y="1038" width="79.84615384615384" height="79.84615384615384" fill="#ffffff"/><rect x="399.23076923076917" y="1038" width="79.84615384615384" height="79.84615384615384" fill="#ffffff"/><rect x="558.9230769230769" y="1038" width="79.84615384615384" height="79.84615384615384" fill="#ffffff"/><g transform="translate(598.85,1038) scale(1.996) rotate(0)"><path d="M10 5L5 0L0 5L5 10L0 15L5 20L10 15L15 20L20 15L15 10L20 5L15 0L10 5Z" fill="#f9f9fc"/></g><rect x="798.4615384615383" y="1038" width="79.84615384615384" height="79.84615384615384" fill="#ffffff"/><g transform="translate(798.46,1038) scale(1.996) rotate(0)"><path d="M10 5L5 0L0 5L5 10L0 15L5 20L10 15L15 20L20 15L15 10L20 5L15 0L10 5Z" fill="#e3e6f3"/></g><rect x="1197.6923076923076" y="1038" width="79.84615384615384" height="79.84615384615384" fill="#ffffff"/><g transform="translate(1197.69,1038) scale(1.996) rotate(0)"><path d="M10 5L5 0L0 5L5 10L0 15L5 20L10 15L15 20L20 15L15 10L20 5L15 0L10 5Z" fill="#fffce6"/></g><g transform="translate(1237.62,1038) scale(1.996) rotate(0)"><path d="M10 5L5 0L0 5L5 10L0 15L5 20L10 15L15 20L20 15L15 10L20 5L15 0L10 5Z" fill="#e6e8f5"/></g><g transform="translate(1197.69,1077.92) scale(1.996) rotate(0)"><path fill-rule="evenodd" clip-rule="evenodd" d="M10 20C15.5228 20 20 15.5228 20 10C20 4.47715 15.5228 0 10 0C4.47715 0 0 4.47715 0 10C0 15.5228 4.47715 20 10 20ZM10 17C13.866 17 17 13.866 17 10C17 6.13401 13.866 3 10 3C6.13401 3 3 6.13401 3 10C3 13.866 6.13401 17 10 17Z" fill="#e3e5f3"/></g><rect x="1437.230769230769" y="1038" width="79.84615384615384" height="79.84615384615384" fill="#ffffff"/><g transform="translate(1437.23,1038) scale(1.996) rotate(0)"><path d="M10 5L5 0L0 5L5 10L0 15L5 20L10 15L15 20L20 15L15 10L20 5L15 0L10 5Z" fill="#fffbdc"/></g><g transform="translate(1477.15,1077.92) scale(1.996) rotate(0)"><path d="M10 5L5 0L0 5L5 10L0 15L5 20L10 15L15 20L20 15L15 10L20 5L15 0L10 5Z" fill="#fffbd8"/></g><rect x="1517.0769230769229" y="1038" width="79.84615384615384" height="79.84615384615384" fill="#ffffff"/><rect x="1676.7692307692307" y="1038" width="79.84615384615384" height="79.84615384615384" fill="#ffffff"/><g transform="translate(1676.77,1038) scale(1.996) rotate(0)"><path d="M10 5L5 0L0 5L5 10L0 15L5 20L10 15L15 20L20 15L15 10L20 5L15 0L10 5Z" fill="#fffef4"/></g><g transform="translate(1716.69,1077.92) scale(1.996) rotate(0)"><path fill-rule="evenodd" clip-rule="evenodd" d="M10 20C15.5228 20 20 15.5228 20 10C20 4.47715 15.5228 0 10 0C4.47715 0 0 4.47715 0 10C0 15.5228 4.47715 20 10 20ZM10 17C13.866 17 17 13.866 17 10C17 6.13401 13.866 3 10 3C6.13401 3 3 6.13401 3 10C3 13.866 6.13401 17 10 17Z" fill="#dddff1"/></g></g></svg>